<svg width="145" height="123" viewBox="0 0 145 123" fill="none" xmlns="http://www.w3.org/2000/svg">
<path opacity="0.35" d="M138.424 100.805C136.378 105.535 131.507 108.235 126.355 108.235H92.4939C92.714 107.622 92.9106 106.991 93.0838 106.341C94.0241 102.787 94.071 99.0556 93.2203 95.479C92.3695 91.9023 90.6476 88.5916 88.2078 85.8414C89.9666 71.5002 91.0652 56.8127 91.7362 45.2099C92.0718 39.4518 85.0202 37.5252 82.4821 42.6826C77.3572 53.0732 71.0904 66.3537 65.5704 79.6666C62.1 80.8149 58.9729 82.8149 56.4751 85.4838C53.9773 88.1527 52.1886 91.4053 51.2725 94.944C50.1067 99.331 50.3144 103.97 51.8678 108.235H17.9955C12.8435 108.235 7.97293 105.529 5.92728 100.805C2.01703 91.7602 0.00561554 82.0089 0.0176316 72.1551C0.0230434 32.3082 32.3313 0 72.1781 0C112.025 0 144.333 32.3082 144.333 72.1551C144.333 82.3346 142.223 92.0217 138.424 100.805Z" fill="#F2F2F2"/>
<path d="M91.7384 45.2041C92.0739 39.446 85.0224 37.5248 82.4843 42.6823C77.3593 53.0728 71.0925 66.3533 65.5725 79.6663C62.1028 80.814 58.9761 82.8132 56.4784 85.4811C53.9806 88.149 52.1915 91.4005 51.2746 94.9383C48.1845 106.682 55.0358 118.761 66.5791 121.91C78.1224 125.06 89.9904 118.084 93.0859 106.335C94.0262 102.781 94.0731 99.0498 93.2224 95.4732C92.3717 91.8966 90.6497 88.5858 88.2099 85.8357C89.9687 71.4945 91.0673 56.807 91.7384 45.2041Z" fill="#F2F2F2"/>
</svg>
