<svg width="130" height="130" viewBox="0 0 130 130" fill="none" xmlns="http://www.w3.org/2000/svg">
<path opacity="0.35" d="M129.333 93.7645V113.164C129.333 122.864 122.868 129.334 113.168 129.334H25.8691C28.5221 129.334 31.238 128.946 33.76 128.102C34.4681 127.845 35.1811 127.588 35.894 127.263C38.1541 126.356 40.356 125.066 42.296 123.383C42.8779 122.932 43.523 122.35 44.105 121.768L44.362 121.506L88.3366 77.5996H113.168C122.868 77.5996 129.333 84.0646 129.333 93.7645Z" fill="#F2F2F2"/>
<path opacity="0.5" d="M105.857 60.0734L88.334 77.5964L44.3594 121.508C49.0721 116.683 51.7169 110.21 51.7313 103.466V40.9986L69.2591 23.4708C76.1121 16.6178 85.293 16.6178 92.1509 23.4708L105.857 37.1816C112.715 44.0346 112.715 53.2205 105.857 60.0734Z" fill="#F2F2F2"/>
<path d="M35.5696 0H16.1698C6.46988 0 0.00488281 6.465 0.00488281 16.1649V103.464C0.00488281 105.21 0.198881 106.956 0.518978 108.639C0.712977 109.478 0.906975 110.322 1.16887 111.161C1.48897 112.131 1.81392 113.101 2.20191 114.008C2.26496 114.071 2.26496 114.134 2.26496 114.134C2.33286 114.134 2.33286 114.134 2.26496 114.202C3.17191 116.011 4.20495 117.757 5.43684 119.372C6.14493 120.216 6.85788 120.992 7.57082 121.768C8.27892 122.544 9.05491 123.189 9.8988 123.834L9.96185 123.902C11.5769 125.129 13.3229 126.162 15.1368 127.069C15.1998 127.006 15.1998 127.006 15.1998 127.069C16.1698 127.52 17.1398 127.845 18.1728 128.17C19.0167 128.427 19.8558 128.621 20.6948 128.815C22.3996 129.15 24.1323 129.324 25.8697 129.334C28.5226 129.334 31.2386 128.946 33.7606 128.102C34.4687 127.845 35.1816 127.588 35.8946 127.263C38.1547 126.356 40.3566 125.066 42.2965 123.383C42.8785 122.932 43.5236 122.35 44.1056 121.768L44.3626 121.506C49.0754 116.681 51.7202 110.209 51.7346 103.464V16.1649C51.7346 6.465 45.2696 0 35.5696 0ZM25.8697 113.164C20.5008 113.164 16.1698 108.833 16.1698 103.464C16.1698 98.0953 20.5008 93.7643 25.8697 93.7643C31.2386 93.7643 35.5696 98.1001 35.5696 103.464C35.5696 108.833 31.2386 113.164 25.8697 113.164Z" fill="#F2F2F2"/>
</svg>
