<svg width="132" height="139" viewBox="0 0 132 139" fill="none" xmlns="http://www.w3.org/2000/svg">
<path opacity="0.35" d="M128.094 36.6115L66.0068 72.5306L3.91992 36.6115C6.66034 31.5273 10.6473 27.0664 15.1082 24.5939L51.7845 4.26225C59.6143 -0.131688 72.3891 -0.131688 80.2189 4.26225L116.895 24.5939C121.356 27.0664 125.343 31.5273 128.089 36.6115" fill="#F2F2F2"/>
<path opacity="0.5" d="M65.9967 72.5333V138.334C60.8455 138.334 55.6943 137.232 51.7795 135.037L15.1032 114.706C6.79953 110.106 0 98.5673 0 89.0891V50.2133C0 45.8194 1.50929 41.0082 3.91488 36.6143L65.9967 72.5333Z" fill="#F2F2F2"/>
<path d="M132.009 50.2133V89.0891C132.009 98.5673 125.209 110.106 116.9 114.706L80.224 135.037C76.3092 137.232 71.158 138.334 66.0068 138.334V72.5333L128.094 36.6143C130.499 41.0082 132.009 45.8194 132.009 50.2133Z" fill="#F2F2F2"/>
</svg>
