<svg width="205" height="205" viewBox="0 0 205 205" fill="none" xmlns="http://www.w3.org/2000/svg">
<rect width="205" height="205" fill="#999999"/>
<path fill-rule="evenodd" clip-rule="evenodd" d="M164 79.7046C164 101.08 146.601 118.409 125.136 118.409C121.221 118.409 112.303 117.509 107.964 113.908L102.541 119.31C99.3533 122.485 100.214 123.42 101.632 124.96C102.224 125.602 102.913 126.351 103.445 127.411C103.445 127.411 107.964 133.711 103.445 140.012C100.734 143.613 93.1418 148.653 84.4651 140.012L82.6581 141.812C82.6581 141.812 88.0803 148.112 83.5611 154.413C80.8502 158.014 73.6198 161.615 67.2932 155.314L60.9666 161.615C56.6283 165.935 51.3262 163.415 49.2174 161.615L43.7946 156.214C38.7333 151.173 41.6857 145.713 43.7946 143.613L90.7925 96.8072C90.7925 96.8072 86.2732 89.6055 86.2732 79.7046C86.2732 58.3287 103.673 41 125.136 41C146.601 41 164 58.3287 164 79.7046ZM125.136 93.2053C132.623 93.2053 138.693 87.1609 138.693 79.7037C138.693 72.2469 132.623 66.2021 125.136 66.2021C117.648 66.2021 111.578 72.2469 111.578 79.7037C111.578 87.1609 117.648 93.2053 125.136 93.2053Z" fill="white"/>
</svg>
