<svg width="121" height="121" viewBox="0 0 121 121" fill="none" xmlns="http://www.w3.org/2000/svg">
<path opacity="0.35" d="M60.1666 120.334C93.3975 120.334 120.333 93.3936 120.333 60.1627C120.333 26.9319 93.393 -0.00390625 60.1666 -0.00390625C26.9403 -0.00390625 0 26.9364 0 60.1627C0 93.3891 26.9403 120.334 60.1666 120.334Z" fill="#F2F2F2"/>
<path d="M60.1664 59.4433C63.9645 59.4433 67.6071 57.9345 70.2928 55.2488C72.9784 52.5632 74.4872 48.9206 74.4872 45.1225C74.4872 41.3244 72.9784 37.6819 70.2928 34.9962C67.6071 32.3105 63.9645 30.8018 60.1664 30.8018C56.3683 30.8018 52.7258 32.3105 50.0401 34.9962C47.3545 37.6819 45.8457 41.3244 45.8457 45.1225C45.8457 48.9206 47.3545 52.5632 50.0401 55.2488C52.7258 57.9345 56.3683 59.4433 60.1664 59.4433ZM75.7485 84.4115L68.5283 75.3277C70.5139 74.7862 72.4994 74.0641 74.3676 73.1616C75.4006 72.5982 76.1697 71.6499 76.5076 70.5228C76.8456 69.3956 76.7252 68.1807 76.1727 67.1418C75.6148 66.1029 74.6749 65.3216 73.5516 64.9629C72.4283 64.6042 71.2096 64.6962 70.1528 65.2194C67.05 66.7624 63.6318 67.5655 60.1664 67.5655C56.7011 67.5655 53.2829 66.7624 50.18 65.2194C49.6508 64.9495 49.0734 64.7867 48.4811 64.7404C47.8888 64.6941 47.2932 64.7653 46.7284 64.9497C46.1637 65.1342 45.6409 65.4284 45.1901 65.8154C44.7393 66.2024 44.3694 66.6746 44.1016 67.205C43.8323 67.734 43.6701 68.311 43.6242 68.9028C43.5783 69.4946 43.6496 70.0897 43.834 70.654C44.0185 71.2182 44.3124 71.7405 44.699 72.1909C45.0857 72.6414 45.5574 73.0111 46.0871 73.2789C47.8922 74.1815 49.819 74.9035 51.7414 75.3863L44.5844 84.4702C44.2156 84.9319 43.9417 85.4618 43.7783 86.0297C43.615 86.5975 43.5654 87.192 43.6325 87.7791C43.6996 88.3661 43.882 88.9341 44.1693 89.4505C44.4566 89.9668 44.843 90.4213 45.3064 90.7879C45.7681 91.1566 46.2981 91.4306 46.8659 91.5939C47.4337 91.7573 48.0283 91.8068 48.6153 91.7398C49.2023 91.6727 49.7704 91.4902 50.2867 91.203C50.803 90.9157 51.2575 90.5293 51.6241 90.0658L60.1078 79.3574L68.5915 90.0658C69.015 90.5988 69.5548 91.0279 70.1695 91.3204C70.7842 91.6129 71.4577 91.7611 72.1384 91.7536C73.1041 91.7536 74.1239 91.4512 74.9091 90.7879C76.9534 89.2265 77.2557 86.3971 75.7485 84.4115Z" fill="#F2F2F2"/>
</svg>
