<svg width="320" height="320" viewBox="0 0 320 320" fill="none" xmlns="http://www.w3.org/2000/svg">
<path d="M123 185.904C123 200.26 134.1 211.804 147.716 211.804H175.54C187.38 211.804 197 201.74 197 189.16C197 175.692 191.08 170.808 182.348 167.7L137.8 152.16C129.068 149.052 123.148 144.316 123.148 130.7C123.148 118.268 132.768 108.056 144.608 108.056H172.432C186.048 108.056 197.148 119.6 197.148 133.956" stroke="#292D32" stroke-width="22.2" stroke-linecap="round" stroke-linejoin="round"/>
<path d="M160 93.4004V226.6" stroke="#292D32" stroke-width="22.2" stroke-linecap="round" stroke-linejoin="round"/>
<path d="M308 160C308 241.696 241.696 308 160 308C78.304 308 12 241.696 12 160C12 78.304 78.304 12 160 12" stroke="#292D32" stroke-width="22.2" stroke-linecap="round" stroke-linejoin="round"/>
<path d="M308 71.2V12H248.8" stroke="#292D32" stroke-width="22.2" stroke-linecap="round" stroke-linejoin="round"/>
<path d="M234 86L308 12" stroke="#292D32" stroke-width="22.2" stroke-linecap="round" stroke-linejoin="round"/>
</svg>
