<svg width="124" height="124" viewBox="0 0 124 124" fill="none" xmlns="http://www.w3.org/2000/svg">
<path fill-rule="evenodd" clip-rule="evenodd" d="M122.246 1.15764C121.544 0.463169 120.572 0 119.495 0H84.8798C82.7462 0 81.0216 1.73618 81.0216 3.85817C81.0216 5.98017 82.7462 7.71635 84.8798 7.71635H110.456L68.7912 49.3848L74.2466 54.8245L115.865 13.1951L115.745 38.5817C115.745 40.7037 117.47 42.4399 119.603 42.4399C121.737 42.4399 123.462 40.7037 123.462 38.5817V3.85817C123.462 2.70072 122.991 1.77495 122.246 1.15764ZM49.2149 68.6371L7.59672 110.266L7.71635 84.8798C7.71635 82.7578 5.99174 81.0216 3.85817 81.0216C1.7246 81.0216 0 82.7578 0 84.8798V119.603C0 120.761 0.470707 121.687 1.21533 122.304C1.91752 122.998 2.88983 123.462 3.96626 123.462H38.5817C40.7153 123.462 42.4399 121.725 42.4399 119.603C42.4399 117.481 40.7153 115.745 38.5817 115.745H13.0059L54.6704 74.0767L49.2149 68.6371Z" fill="white"/>
</svg>
