<svg width="244" height="244" viewBox="0 0 244 244" fill="none" xmlns="http://www.w3.org/2000/svg">
<path opacity="0.5" d="M0 97.5999C0 51.5908 -1.45435e-06 28.5864 14.2931 14.2931C28.5864 1.45435e-06 51.5908 0 97.5999 0H122C168.008 0 191.014 1.45435e-06 205.306 14.2931C219.6 28.5864 219.6 51.5908 219.6 97.5999V146.4C219.6 192.408 219.6 215.414 205.306 229.706C191.014 244 168.008 244 122 244H97.5999C51.5908 244 28.5864 244 14.2931 229.706C-1.45435e-06 215.414 0 192.408 0 146.4V97.5999Z" fill="#F0F0F0"/>
<path d="M164.931 176.922C167.066 175.256 169.002 173.32 172.875 169.447L221.155 121.166C222.322 120 221.787 117.989 220.228 117.448C214.53 115.471 207.116 111.759 200.181 104.824C193.247 97.89 189.534 90.4762 187.558 84.7774C187.016 83.2178 185.006 82.6836 183.839 83.8508L135.559 132.13C131.686 136.004 129.749 137.94 128.084 140.075C126.12 142.594 124.435 145.319 123.061 148.203C121.896 150.646 121.03 153.245 119.299 158.441L117.06 165.155L113.501 175.83L110.165 185.84C109.313 188.397 109.978 191.215 111.884 193.122C113.791 195.028 116.609 195.692 119.166 194.841L129.176 191.504L139.851 187.945L146.565 185.707C151.759 183.976 154.359 183.109 156.803 181.944C159.687 180.571 162.411 178.886 164.931 176.922Z" fill="#F0F0F0"/>
<path d="M236.269 106.045C246.575 95.7399 246.575 79.033 236.269 68.7284C225.965 58.4239 209.258 58.4239 198.953 68.7284L197.401 70.2806C195.903 71.7784 195.225 73.8705 195.599 75.9555C195.835 77.267 196.27 79.1844 197.065 81.4724C198.652 86.0483 201.649 92.0549 207.297 97.7012C212.943 103.349 218.95 106.346 223.525 107.933C225.814 108.728 227.73 109.163 229.042 109.399C231.127 109.773 233.219 109.095 234.717 107.597L236.269 106.045Z" fill="#F0F0F0"/>
<path fill-rule="evenodd" clip-rule="evenodd" d="M51.8496 85.4C51.8496 80.3466 55.9462 76.25 60.9996 76.25H140.299C145.353 76.25 149.449 80.3466 149.449 85.4C149.449 90.4533 145.353 94.55 140.299 94.55H60.9996C55.9462 94.55 51.8496 90.4533 51.8496 85.4ZM51.8496 134.2C51.8496 129.147 55.9462 125.05 60.9996 125.05H97.5995C102.653 125.05 106.75 129.147 106.75 134.2C106.75 139.253 102.653 143.35 97.5995 143.35H60.9996C55.9462 143.35 51.8496 139.253 51.8496 134.2ZM51.8496 183C51.8496 177.947 55.9462 173.85 60.9996 173.85H79.2996C84.3529 173.85 88.4496 177.947 88.4496 183C88.4496 188.053 84.3529 192.15 79.2996 192.15H60.9996C55.9462 192.15 51.8496 188.053 51.8496 183Z" fill="#F0F0F0"/>
</svg>
