<svg width="134" height="147" viewBox="0 0 134 147" fill="none" xmlns="http://www.w3.org/2000/svg">
<path d="M130.471 18.6389H117.158H87.5929V11.8019C87.5929 5.19518 82.4964 0 75.8928 0H54.5795C47.9751 0 42.3271 5.19518 42.3271 11.8019V18.6386H15.976H2.66266C1.19218 18.6386 0 19.8308 0 21.3013C0 22.7718 1.19218 23.9639 2.66266 23.9639H13.4863L20.8139 133.362C21.2976 140.578 27.5851 146.448 34.8308 146.448H98.3036C105.551 146.448 111.838 140.578 112.321 133.362L119.648 23.9642H130.472C131.942 23.9642 133.134 22.772 133.134 21.3016C133.134 19.8311 131.942 18.6389 130.471 18.6389ZM54.5798 5.32532H75.8931C79.5594 5.32532 82.2676 8.13185 82.2676 11.8019V18.6386H47.6527V11.8019C47.6527 8.13214 50.912 5.32532 54.5798 5.32532ZM107.008 133.005C106.707 137.482 102.803 141.122 98.3033 141.122H34.8305C30.3307 141.122 26.4264 137.48 26.126 133.005L18.8234 23.9642H45.2658H85.206H114.311L107.008 133.005Z" fill="white"/>
<path d="M66.2906 39.7627C64.8201 39.7627 63.6279 40.9552 63.6279 42.4254V124.969C63.6279 126.439 64.8201 127.631 66.2906 127.631C67.7611 127.631 68.9532 126.439 68.9532 124.969V42.4254C68.9532 40.9552 67.7611 39.7627 66.2906 39.7627Z" fill="white"/>
<path d="M53.2462 124.714L45.2582 42.1703C45.1177 40.7072 43.8163 39.6258 42.3524 39.7768C40.8885 39.9169 39.817 41.2187 39.9589 42.6823L47.9469 125.226C48.0796 126.603 49.2377 127.632 50.5941 127.632C50.6799 127.632 50.7657 127.629 50.8527 127.619C52.3166 127.479 53.3878 126.178 53.2462 124.714Z" fill="white"/>
<path d="M90.7891 39.7772C89.3381 39.6236 88.0249 40.7068 87.8834 42.1707L79.8954 124.714C79.7538 126.178 80.825 127.479 82.2889 127.62C82.3761 127.629 82.4619 127.632 82.5477 127.632C83.9038 127.632 85.0622 126.603 85.1947 125.226L93.1826 42.6824C93.3245 41.2191 92.253 39.9174 90.7891 39.7772Z" fill="white"/>
</svg>
